<svg width="26" height="26" viewBox="0 0 26 26" fill="none" xmlns="http://www.w3.org/2000/svg">
<path d="M18.5 0.5H7.5C5.64348 0.5 3.86301 1.2375 2.55025 2.55025C1.2375 3.86301 0.5 5.64348 0.5 7.5V18.5C0.5 20.3565 1.2375 22.137 2.55025 23.4497C3.86301 24.7625 5.64348 25.5 7.5 25.5H18.5C20.3565 25.5 22.137 24.7625 23.4497 23.4497C24.7625 22.137 25.5 20.3565 25.5 18.5V7.5C25.5 5.64348 24.7625 3.86301 23.4497 2.55025C22.137 1.2375 20.3565 0.5 18.5 0.5ZM13 19C11.8133 19 10.6533 18.6481 9.6666 17.9888C8.6799 17.3295 7.9108 16.3925 7.4567 15.2961C7.0026 14.1997 6.88378 12.9933 7.1153 11.8295C7.3468 10.6656 7.9182 9.5965 8.7574 8.7574C9.5965 7.9182 10.6656 7.3468 11.8295 7.1153C12.9933 6.88378 14.1997 7.0026 15.2961 7.4567C16.3925 7.9108 17.3295 8.6799 17.9888 9.6666C18.6481 10.6533 19 11.8133 19 13C19 14.5913 18.3679 16.1174 17.2426 17.2426C16.1174 18.3679 14.5913 19 13 19ZM19.5 8C19.2033 8 18.9133 7.912 18.6666 7.7472C18.42 7.5824 18.2277 7.3481 18.1142 7.074C18.0007 6.79994 17.9709 6.49834 18.0288 6.20736C18.0867 5.91639 18.2296 5.64912 18.4393 5.43934C18.6491 5.22956 18.9164 5.0867 19.2074 5.02882C19.4983 4.97094 19.7999 5.00065 20.074 5.11418C20.3481 5.22771 20.5824 5.41997 20.7472 5.66665C20.912 5.91332 21 6.20333 21 6.5C21 6.89782 20.842 7.2794 20.5607 7.5607C20.2794 7.842 19.8978 8 19.5 8Z" fill="#D5E27B"/>
</svg>
